# xmcd CD database file
# Generated: Tue Aug 27 15:09:22 2002 by KSCD
# 
# Track frame offsets:
#       150
#       12850
#       34940
#       51165
#       64798
#       93863
#       128893
#       146098
#       172840
#       196458
#       209963
#
# Disc length: 3153 seconds
#
# Revision: 2
# Processed by: cddbd v1.4PL0 Copyright (c) Steve Scherf et al.
# Submitted via: Kscd 1.3.0
#
DISCID=a00c4f0b
DTITLE=Muddy Waters - Muddy Watters
DYEAR=1900
DGENRE=
TTITLE0=Baby Please Don't Go
TTITLE1=Soon Forgotten
TTITLE2=Corrina, Corrina
TTITLE3=Hoochie Coochie Man
TTITLE4=Howlin' Wolf
TTITLE5=Floyd's Guitar Blues
TTITLE6=Blow Wind Blow
TTITLE7=Caldonia
TTITLE8=Screamin' and Cryin'
TTITLE9=I Got My Mojo Working
TTITLE10=Garbage Man
EXTD=Part of the "Revue" collection\nREV424
EXTT0=
EXTT1=
EXTT2=
EXTT3=
EXTT4=
EXTT5=
EXTT6=
EXTT7=
EXTT8=
EXTT9=
EXTT10=
PLAYORDER=
